<svg width="24" height="24" viewBox="0 0 24 24" fill="none" xmlns="http://www.w3.org/2000/svg">
<path d="M2.3999 13.2001C2.3999 12.5374 2.93716 12.0001 3.5999 12.0001H5.9999C6.66264 12.0001 7.1999 12.5374 7.1999 13.2001V19.2001C7.1999 19.8628 6.66264 20.4001 5.9999 20.4001H3.5999C2.93716 20.4001 2.3999 19.8628 2.3999 19.2001V13.2001Z" fill="white"/>
<path d="M9.5999 8.4001C9.5999 7.73736 10.1372 7.2001 10.7999 7.2001H13.1999C13.8626 7.2001 14.3999 7.73736 14.3999 8.4001V19.2001C14.3999 19.8628 13.8626 20.4001 13.1999 20.4001H10.7999C10.1372 20.4001 9.5999 19.8628 9.5999 19.2001V8.4001Z" fill="white"/>
<path d="M16.7999 4.8001C16.7999 4.13736 17.3372 3.6001 17.9999 3.6001H20.3999C21.0626 3.6001 21.5999 4.13736 21.5999 4.8001V19.2001C21.5999 19.8628 21.0626 20.4001 20.3999 20.4001H17.9999C17.3372 20.4001 16.7999 19.8628 16.7999 19.2001V4.8001Z" fill="white"/>
</svg>
