<svg width="24" height="24" viewBox="0 0 24 24" fill="none" xmlns="http://www.w3.org/2000/svg">
<path d="M22.0805 7.89178L12.3394 3.07913C12.2338 3.02707 12.1177 3 12 3C11.8823 3 11.7662 3.02707 11.6606 3.07913L1.92188 7.89178C1.79594 7.95305 1.68968 8.04836 1.61512 8.16691C1.54056 8.28546 1.50068 8.42252 1.5 8.56257V20.2499C1.50055 20.349 1.52062 20.447 1.55907 20.5383C1.59751 20.6297 1.65357 20.7125 1.72405 20.7822C1.79453 20.8518 1.87804 20.9069 1.96981 20.9443C2.06159 20.9816 2.15982 21.0005 2.25891 20.9999H21.7411C21.8402 21.0005 21.9384 20.9816 22.0302 20.9443C22.122 20.9069 22.2055 20.8518 22.2759 20.7822C22.3464 20.7125 22.4025 20.6297 22.4409 20.5383C22.4794 20.447 22.4994 20.349 22.5 20.2499V8.56257C22.4995 8.42277 22.46 8.28588 22.3859 8.16736C22.3117 8.04883 22.206 7.95338 22.0805 7.89178ZM12 4.5885L20.1094 8.5935L11.8734 12.6613L3.76406 8.65632L12 4.5885Z" fill="white"/>
</svg>
