<svg width="24" height="24" viewBox="0 0 24 24" fill="none" xmlns="http://www.w3.org/2000/svg">
<path d="M22.4566 5.21949C22.4461 5.05187 22.3797 4.89262 22.2679 4.76726C22.1561 4.6419 22.0055 4.55768 21.8402 4.52809C17.8076 3.80528 16.1107 3.23996 12.469 1.60121C12.1052 1.46574 11.8797 1.46809 11.5315 1.60121C7.88975 3.24184 6.19287 3.80434 2.16022 4.52809C1.99489 4.55768 1.84428 4.6419 1.73252 4.76726C1.62076 4.89262 1.5543 5.05187 1.54381 5.21949C1.36334 8.08356 1.74725 10.7507 2.68568 13.1484C3.45304 15.1035 4.58984 16.8925 6.03397 18.4176C8.12787 20.6409 10.4496 21.9389 11.6468 22.4301C11.8738 22.5227 12.128 22.5227 12.3551 22.4301C13.6207 21.9182 15.8562 20.6573 17.9665 18.4167C19.4105 16.8919 20.5473 15.1032 21.3147 13.1484C22.2532 10.7512 22.6371 8.08356 22.4566 5.21949Z" fill="white"/>
</svg>
